<svg xmlns="http://www.w3.org/2000/svg" viewBox="0 0 16.368 19.399">
  <path id="clubhouse-icon" d="M4.637,0C2.628,0,1,1.9,1,4.244a4.163,4.163,0,0,0,2.8,4.13l-.6,9.815A1.129,1.129,0,0,0,4.335,19.4h.606a1.129,1.129,0,0,0,1.138-1.21l-.6-9.815a4.164,4.164,0,0,0,2.8-4.13C8.276,1.9,6.648,0,4.639,0ZM16.863,0,15.852,6.062h-.758L14.59,0h-.5l-.5,6.062h-.758L11.811,0h-.5V7.881a.606.606,0,0,0,.606.606h1.579l-.6,9.7a1.129,1.129,0,0,0,1.138,1.21h.606a1.129,1.129,0,0,0,1.138-1.21l-.6-9.7h1.579a.606.606,0,0,0,.606-.606V0h-.5Z" transform="translate(-1)" fill="#819b4b"/>
</svg>
