<svg xmlns="http://www.w3.org/2000/svg" viewBox="0 0 17 24">
  <path id="tee-icon" d="M7.308,21.774V19.482H18.988v2.293H16.641a2.425,2.425,0,0,0-2.346,2.346v1.146H12V24.121a2.249,2.249,0,0,0-.709-1.637,2.249,2.249,0,0,0-1.637-.709H7.308ZM12,6.655a1.146,1.146,0,1,1,1.964.819A1.146,1.146,0,0,1,12,6.655ZM14.294,9a1.213,1.213,0,0,1,1.2-1.2,1.067,1.067,0,0,1,.819.355A1.207,1.207,0,0,1,16.642,9,1.118,1.118,0,0,1,15.5,10.149a1.207,1.207,0,0,1-.847-.327A1.067,1.067,0,0,1,14.294,9ZM9.655,9a1.207,1.207,0,0,1,.327-.847A1.067,1.067,0,0,1,10.8,7.8,1.213,1.213,0,0,1,12,9a1.067,1.067,0,0,1-.355.819,1.207,1.207,0,0,1-.847.327A1.118,1.118,0,0,1,9.655,9Zm3.493-4.7a5.619,5.619,0,0,0-4.121,1.72,5.628,5.628,0,0,0-1.72,4.121,5.616,5.616,0,0,0,1.72,4.121,5.624,5.624,0,0,0,4.121,1.72,5.624,5.624,0,0,0,4.121-1.72,5.616,5.616,0,0,0,1.72-4.121,5.628,5.628,0,0,0-1.72-4.121,5.619,5.619,0,0,0-4.121-1.72Zm0,13.973A7.841,7.841,0,0,1,7.39,15.907a7.841,7.841,0,0,1-2.374-5.758A7.841,7.841,0,0,1,7.39,4.39a7.841,7.841,0,0,1,5.758-2.374A7.841,7.841,0,0,1,18.907,4.39a7.841,7.841,0,0,1,2.374,5.758,7.841,7.841,0,0,1-2.374,5.758,7.841,7.841,0,0,1-5.758,2.374Z" transform="translate(-5.016 -2.016)" fill="#819b4b"/>
</svg>
